<?xml version="1.0" encoding="utf-8"?>
<!-- Generator: Adobe Illustrator 25.2.1 via Limmidy, SVG Export Plug-In . SVG Version: 6.00 Build 0)  -->
<svg version="1.1" id="Layer_1" xmlns="http://www.w3.org/2000/svg" xmlns:xlink="http://www.w3.org/1999/xlink" x="0px" y="0px"
	 viewBox="0 0 527.1 183.3" style="enable-background:new 0 0 527.1 183.3;" xml:space="preserve">
<g id="ALUMINUM">
</g>
<g id="type">
	<g>
		<path d="M201.5,55.2c-3.8-4-8-6.4-10.8-6.4h-2.6v-2.2h2.1c1,0,12.6,0.5,13.8,0.5c1.8,0,7.2-0.5,8.4-0.5h2.3l54,58.9V59
			c0-7.4-3.3-10.2-11.5-10.2h-2.4v-2.2h2.6c0.3,0,12.5,0.5,13.5,0.5c1.4,0,9.5-0.5,11.1-0.5h1.6l0.1,2.2c-7.5,0.6-9.5,2.6-9.5,9.1
			v73.5h-2.5L207.1,61V114c0,11.1,2.6,14.1,11.9,14.1h2.4v2.4h-2.7c-2,0-11.8-0.5-14-0.5c-1.3,0-10.4,0.5-12.4,0.5H190v-2.4
			c9.5-0.9,11.5-2.4,11.5-9.3L201.5,55.2L201.5,55.2z"/>
		<path d="M299.4,56c0-5.5-2.1-7.3-8.8-7.3h-2.1v-2.2h5.5c3.8,0,24.6,0.5,24.7,0.5c3,0,22.7-0.5,26.9-0.5h5.7l0.3,18.3h-2.2
			c-0.4-9.5-4.7-13.4-14.7-13.4h-19.8v32.3H332c6.7,0,10.4-3.1,11.3-9.8l2.5,0.1v25.5h-2.4c-1.1-8-5.2-11.1-15.2-11.1h-13.6v29.5
			c0,4.8,2.4,7.3,7.2,7.3h14.2c9.2,0,15.9-4.1,19.8-12.7h2.6l-6,17.9c-4.1,0-23.7-0.5-30.2-0.5c-4.4,0-25.6,0.3-30.4,0.5h-3.7v-2.4
			h2.3c6.7-0.1,8.8-1.9,8.8-7.4L299.4,56L299.4,56z"/>
		<path d="M435.7,131.5h-4l-16.2-44.2l-16.6,44.2h-3.8l-27.7-74.2c-2.1-5.7-4.1-8-7.8-8.7v-2.1h2.4c1.6,0,9.4,0.5,11.2,0.5
			c1.6,0,9.7-0.5,11.4-0.5h2.6v2.2c-4.1,0.1-5.8,1.3-5.8,3.6c0,1.3,0.4,3.1,1.1,5.1l19.5,52.6l11.1-30l-7.2-20.2
			c-3.1-8.7-5.8-10.9-12.7-11.1v-2.2h2.3c2,0,12.2,0.5,14.6,0.5c2,0,12.2-0.5,14.5-0.5h3.4v2.2h-3.4c-4.7,0-7,1.1-7,3.6
			c0,1.3,0.6,3.6,1.4,5.8l18.9,52.3l14.9-44.4c1.8-5.7,2.7-9.4,2.7-11.7c0-4-2-5.7-6.4-5.7h-2.6v-2.2h0.7c2,0,7,0.5,9.9,0.5
			c1.4,0,6.9-0.5,9.6-0.5h1v2.2c-3.6,1-5.4,3.6-8.2,12.2L435.7,131.5z"/>
		<path d="M468.5,111c2.3,5.5,4.3,8.1,8.1,10.9c4.8,3.7,11.2,5.5,18.3,5.5c12.2,0,20.4-6.4,20.4-15.6c0-6.8-4-10.5-18.6-17.5
			c-14.2-6.8-17.8-10.2-20.7-13.1c-4.4-4.7-6.2-8.9-6.2-14.6c0-13.1,10.6-21.7,26.7-21.7c4.8,0,10.1,0.7,15.8,2.1
			c2.3,0.6,4.5,0.8,5.8,0.8c1.1,0,1.7-0.3,2.1-1.2h2.4l0.3,17.9h-2c-1.3-4.3-2.1-6.1-4-8.4c-4-4.7-10.2-7.2-18.3-7.2
			c-10.2,0-16.9,4.8-16.9,12.1c0,6.2,3.8,9.8,17.4,16c17.4,8.1,28,15.3,28,28.7c0,15.3-12.5,25.7-31.1,25.7c-4.7,0-9.3-0.6-15-1.8
			c-2-0.4-4.1-0.7-5.1-0.7c-1.7,0-2.3,0.3-3.4,1.6h-2.4l-0.3-2c-1.1-6.5-2.4-12.6-3.4-16.8L468.5,111z"/>
	</g>
	<g>
		<path d="M49,91.6c0,6.2-5,11.3-11.3,11.3s-11.3-5-11.3-11.3c0-6.2,5-11.3,11.3-11.3C44,80.4,49,85.4,49,91.6z M91.6,80.4
			c-6.2,0-11.3,5-11.3,11.3c0,6.2,5,11.3,11.3,11.3c6.2,0,11.3-5,11.3-11.3C102.9,85.4,97.9,80.4,91.6,80.4z M183.3,91.6
			c0,50.6-41,91.6-91.6,91.6S0,142.2,0,91.6S41,0,91.6,0S183.3,41,183.3,91.6z M63.1,91.6c0-14-11.3-25.3-25.3-25.3
			c-14,0-25.3,11.3-25.3,25.3c0,14,11.3,25.3,25.3,25.3c7.3,0,11.3-4.8,11.3-4.8v4.4h14.1L63.1,91.6L63.1,91.6z M117,91.6
			c0-14-11.3-25.3-25.3-25.3c-6.8,0-11.3,3.7-11.3,3.7l0-16.1H66.3v37.7c0,14,11.3,25.3,25.3,25.3C105.6,117,117,105.6,117,91.6z
			 M170.6,94.9h-14.3c-1.4,4.6-5.7,8-10.8,8c-6.2,0-11.3-5-11.3-11.3c0-6.2,5-11.3,11.3-11.3c5.1,0,9.4,3.4,10.8,8h14.3
			C169,76,158.4,66.3,145.5,66.3c-14,0-25.3,11.3-25.3,25.3c0,14,11.3,25.3,25.3,25.3C158.4,117,169,107.3,170.6,94.9z"/>
	</g>
</g>
</svg>
